<svg id="Capa_1" enable-background="new 0 0 512 512" height="512" viewBox="0 0 512 512" width="512" xmlns="http://www.w3.org/2000/svg"><circle cx="256" cy="256" fill="#ff583e" r="256"/><path d="m511.932 261.34-166.829-166.83-215.93 172.015 95.999 95.999-69.264 65.662 83.248 83.248c5.569.362 11.182.566 16.844.566 139.6 0 253.088-111.742 255.932-250.66z" fill="#ed0303"/><path d="m311.006 187.014c-12.877 0-24.666-4.64-33.803-12.329-10.434 7.744-23.352 12.329-37.342 12.329-13.991 0-26.909-4.585-37.342-12.329-9.138 7.689-20.926 12.329-33.804 12.329-1.95 0-3.872-.115-5.766-.322v89.446h-8.37c-21.211 0-38.405-17.195-38.405-38.405v-104.342h.027c.578-28.517 23.859-51.461 52.514-51.461 7.538 0 14.699 1.599 21.179 4.458 11.455-15.078 29.57-24.819 49.967-24.819s38.512 9.741 49.967 24.819c6.481-2.858 13.641-4.458 21.179-4.458 29.018 0 52.542 23.524 52.542 52.542v51.422z" fill="#fff"/><path d="m311.006 81.93c-7.538 0-14.698 1.6-21.179 4.458-8.32-10.952-20.157-19.084-33.827-22.717v121.233c7.759-2.063 14.932-5.564 21.203-10.219 9.137 7.689 20.926 12.329 33.803 12.329l52.542-1.12v-51.422c0-29.018-23.524-52.542-52.542-52.542z" fill="#e9edf5"/><path d="m387.766 381.95h-85.591v-195.214h85.591c28.842 0 52.307 23.465 52.307 52.307v90.599c-.001 28.842-23.466 52.308-52.307 52.308zm-52.591-33h52.591c10.646 0 19.307-8.661 19.307-19.308v-90.599c0-10.646-8.661-19.307-19.307-19.307h-52.591z" fill="#fdba12"/><path d="m336.443 434.505h-163.145c-14.97 0-27.105-12.135-27.105-27.105v-253.193h217.356v253.193c-.001 14.97-12.136 27.105-27.106 27.105z" fill="#ffd400"/><path d="m256 154.207v280.298h80.443c14.97 0 27.105-12.135 27.105-27.105v-253.193z" fill="#fdba12"/><path d="m213.829 399.836c-12.571 0-22.763-10.191-22.763-22.763v-168.416c0-12.571 10.191-22.763 22.763-22.763 12.571 0 22.763 10.191 22.763 22.763v168.416c-.001 12.571-10.192 22.763-22.763 22.763z" fill="#fdba12"/><path d="m295.912 399.836c-12.571 0-22.763-10.191-22.763-22.763v-168.416c0-12.571 10.191-22.763 22.763-22.763 12.571 0 22.763 10.191 22.763 22.763v168.416c-.001 12.571-10.192 22.763-22.763 22.763z" fill="#ffa300"/></svg>