<svg id="Capa_1" enable-background="new 0 0 512.001 512.001" height="512" viewBox="0 0 512.001 512.001" width="512" xmlns="http://www.w3.org/2000/svg"><path d="m455.571 341.749 29.274-7.844c14.145-3.79 22.539-18.33 18.749-32.475l-18.205-67.94c-3.79-14.145-18.33-22.539-32.475-18.749 0 0-29.274 7.844-29.274 7.844l7.097 26.488 26.762-7.171c.903-.242 1.832.294 2.074 1.197l16.858 62.916c.242.903-.294 1.832-1.197 2.074l-26.762 7.171c.001.001 7.099 26.489 7.099 26.489z" fill="#b1e4f9"/><path d="m414.923 194.373-.299.08c-.673 12.019-8.934 22.779-21.195 26.065-1.671.448-3.346.738-5.011.879-1.566.133-2.619 1.664-2.213 3.182l5.473 20.424c2.248 8.388-2.702 17.371-11.127 19.478-8.189 2.048-16.566-2.86-18.759-11.044l-5.827-21.745c-.427-1.592-2.242-2.381-3.676-1.568-3.098 1.756-6.468 3.151-10.068 4.116-11.092 2.972-22.333 1.309-31.668-3.802-1.299-.711-2.937-.219-3.551 1.128-3.842 8.425-11.277 15.132-20.92 17.716-12.878 3.451-26.026-1.436-33.713-11.352l-1.328.356c-.597.16-.951.773-.791 1.37l51.134 190.834 166.042-44.491-51.134-190.834c-.159-.597-.772-.951-1.369-.792z" fill="#ecbe6b"/><path d="m56.438 256.114-29.274-7.844c-14.145-3.79-22.539-18.33-18.749-32.475l18.205-67.94c3.79-14.145 18.33-22.539 32.475-18.749 0 0 29.274 7.844 29.274 7.844l-7.097 26.488-26.762-7.171c-.903-.242-1.832.294-2.074 1.197l-16.858 62.916c-.242.903.294 1.832 1.197 2.074l26.762 7.171c-.002.001-7.099 26.489-7.099 26.489z" fill="#d3effb"/><path d="m40.485 315.65c-1.976 7.376 2.401 14.957 9.777 16.934l139.332 37.334c7.376 1.976 14.957-2.401 16.934-9.777l4.096-15.287-166.043-44.491z" fill="#d3effb"/><path d="m305.481 445.776c1.976 7.376 9.558 11.753 16.934 9.777l139.332-37.334c7.376-1.976 11.753-9.558 9.777-16.934l-4.096-15.287-166.042 44.491z" fill="#edf7f8"/><path d="m305.481 445.776c1.976 7.376 9.558 11.753 16.934 9.777l139.332-37.334c7.376-1.976 11.753-9.558 9.777-16.934l-4.096-15.287-166.042 44.491z" fill="#b1e4f9"/><path d="m416.293 195.165c-.16-.597-.773-.951-1.37-.791l-.299.08c-.673 12.019-8.934 22.779-21.195 26.065-1.584.425-3.173.707-4.754.856l38.752 144.624 4.096 15.287c1.976 7.376-2.401 14.957-9.777 16.934l45.681-12.22z" fill="#e7a52e"/><path d="m260.966 152.65-.43-.115c-6.481 9.487-18.466 14.322-30.193 11.18-6.348-1.701-11.593-5.465-15.207-10.377-.604-.821-1.646-1.211-2.633-.955-7.915 2.049-16.452 2.143-24.913-.124-6.512-1.745-12.363-4.723-17.371-8.615-1.432-1.113-3.533-.402-4.003 1.351l-5.743 21.434c-2.248 8.388-11.025 13.692-19.375 11.305-8.116-2.321-12.917-10.76-10.724-18.944l5.276-19.691c.451-1.682-.883-3.293-2.621-3.188-3.411.207-6.913-.124-10.396-1.058-12.548-3.362-21.41-13.614-23.606-25.596l-1.942-.52c-.597-.16-1.21.194-1.37.791l-51.134 190.835 166.042 44.491 51.134-190.834c.16-.596-.194-1.21-.791-1.37z" fill="#ecbe6b"/><path d="m168.303 333.515-1.776 6.626c-1.976 7.376-9.558 11.753-16.934 9.777l-109.517-29.346c.545 5.569 4.462 10.478 10.186 12.011l139.332 37.334c7.376 1.976 14.957-2.401 16.934-9.777l4.096-15.287z" fill="#b1e4f9"/><path d="m260.966 152.65-.43-.115c-6.481 9.487-18.466 14.322-30.193 11.18-5.743-1.539-10.583-4.766-14.13-9.005l-45.59 170.144-2.32 8.66 42.32 11.34 51.134-190.834c.16-.596-.194-1.21-.791-1.37z" fill="#e7a52e"/><path d="m171.31 303.262-4.464-1.196c-8.614-2.308-13.726-11.162-11.418-19.776l22.919-85.535c2.308-8.614 11.162-13.726 19.776-11.418l4.464 1.196c8.614 2.308 13.726 11.162 11.418 19.776l-22.919 85.535c-2.308 8.614-11.162 13.726-19.776 11.418z" fill="#e7a52e"/><path d="m207.147 188.547-30.881 115.251c6.826-.327 12.957-4.999 14.821-11.954l22.919-85.535c1.863-6.955-1.111-14.066-6.859-17.762z" fill="#e49824"/><path d="m345.163 387.701-4.464 1.196c-8.614 2.308-17.468-2.804-19.776-11.418l-22.919-85.535c-2.308-8.614 2.804-17.468 11.418-19.776l4.464-1.196c8.614-2.308 17.468 2.804 19.776 11.418l22.919 85.535c2.308 8.614-2.804 17.468-11.418 19.776z" fill="#e7a52e"/><path d="m250.386 112.126c-.933-.484-1.45-1.491-1.349-2.537 2.256-23.393-12.639-45.673-36.092-51.957-21.713-5.818-43.929 3.906-54.837 22.352-.842 1.425-2.812 1.62-3.979.446-4.362-4.388-10.041-7.596-16.64-8.938-15.864-3.226-31.945 5.968-37.201 21.28-6.192 18.037 4.24 37.232 22.345 42.083 3.483.933 6.985 1.264 10.396 1.058 1.738-.105 3.071 1.506 2.621 3.188l-5.17 19.293c-2.248 8.388 2.702 17.37 11.126 19.477 8.189 2.048 16.567-2.859 18.76-11.044l5.85-21.832c.47-1.752 2.571-2.464 4.003-1.351 5.008 3.893 10.86 6.871 17.371 8.615 8.461 2.267 16.998 2.174 24.913.124.99-.256 2.032.138 2.638.961 3.901 5.299 9.701 9.261 16.737 10.736 13.705 2.874 27.654-5.14 32.07-18.429 4.438-13.354-1.737-27.394-13.562-33.525z" fill="#d3effb"/><path d="m250.386 112.126c-.933-.484-1.45-1.491-1.349-2.537 2.256-23.393-12.639-45.673-36.092-51.957-8.115-2.174-16.299-2.178-23.938-.367 11.532 8.356 18.916 21.432 20.09 35.654.491 5.956 3.185 11.539 7.533 15.639 7.588 7.156 10.889 18.346 7.318 29.094-2.094 6.301-6.331 11.416-11.67 14.747.017.032.007.014.024.046 1.047-.369 2.191.021 2.839.9 4.049 5.5 10.143 9.559 17.541 10.893 13.467 2.429 26.907-5.554 31.248-18.532 4.472-13.372-1.703-27.44-13.544-33.58z" fill="#b1e4f9"/><path d="m380.999 164.64c-4.138.747-7.879 2.323-11.102 4.515-1.156.786-2.725.432-3.52-.717-10.014-14.464-28.374-21.812-46.342-16.998-16.517 4.426-28.183 17.919-31.078 33.688-.267 1.455-1.686 2.406-3.117 2.033-5.945-1.549-12.428-1.414-18.759.803-14.909 5.221-23.876 20.866-20.853 36.37 3.601 18.474 21.987 29.735 39.855 24.947 9.643-2.584 17.078-9.291 20.92-17.716.614-1.347 2.252-1.839 3.551-1.128 9.335 5.11 20.576 6.774 31.668 3.802 3.6-.965 6.969-2.36 10.068-4.116 1.434-.813 3.25-.024 3.676 1.568l5.72 21.348c2.248 8.388 11.025 13.692 19.374 11.305 8.116-2.321 12.917-10.76 10.724-18.944l-5.579-20.821c-.407-1.518.646-3.049 2.213-3.182 1.665-.142 3.341-.432 5.011-.879 15.93-4.268 25.109-21.156 19.665-37.026-4.544-13.244-18.316-21.341-32.095-18.852z" fill="#d3effb"/><path d="m413.094 183.494c-4.582-13.356-18.495-21.442-32.367-18.804-3.635.691-6.959 2.024-9.888 3.851.897 1.553 1.656 3.208 2.254 4.952 5.445 15.87-3.734 32.757-19.664 37.026-.027.007-.054.014-.081.022-4.213 1.116-6.795 5.339-5.667 9.549l2.93 10.936c.544-.277 1.081-.565 1.61-.863 1.464-.826 3.309-.093 3.744 1.53l5.71 21.311c2.161 8.065 10.208 13.357 18.37 11.596 8.725-1.882 14.021-10.678 11.739-19.198l-5.579-20.821c-.407-1.518.646-3.048 2.212-3.182 1.665-.142 3.341-.432 5.011-.88 15.931-4.269 25.11-21.156 19.666-37.025z" fill="#b1e4f9"/><path d="m141.606 177.87c-5.419-1.355-9.4-5.555-10.952-10.612-8.597-2.271-17.418 2.837-19.721 11.432l-22.919 85.535c-2.308 8.614 2.804 17.468 11.418 19.776l4.464 1.196c8.614 2.308 17.468-2.804 19.776-11.418l22.919-85.535c.914-3.412.664-6.862-.507-9.928-1.472.071-2.978-.071-4.478-.446z" fill="#e7a52e"/><path d="m424.003 349.859-22.919-85.535c-1.344-5.016-4.908-8.844-9.351-10.712-1.417 5.018-5.326 9.204-10.673 10.733-4.968 1.421-10.088.118-13.893-2.938-2.165 3.619-2.92 8.076-1.742 12.471l22.919 85.535c2.308 8.614 11.162 13.726 19.776 11.418l4.464-1.196c8.615-2.308 13.727-11.162 11.419-19.776z" fill="#e7a52e"/><path d="m398.888 259.488 25.631 95.656c.119-1.733-.042-3.515-.516-5.286l-22.919-85.535c-.475-1.771-1.227-3.393-2.196-4.835z" fill="#c6865c"/><path d="m510.838 299.49-1.381-5.154c-1.071-4.001-5.184-6.373-9.186-5.304-4.001 1.072-6.375 5.185-5.303 9.186l1.381 5.154c2.713 10.128-3.318 20.576-13.446 23.289l-22.03 5.903-3.215-11.999 19.52-5.23c4.896-1.313 7.812-6.364 6.499-11.26l-16.858-62.916c-1.316-4.909-6.352-7.815-11.26-6.501l-19.518 5.23-3.215-11.999 22.031-5.903c10.148-2.721 20.569 3.294 23.289 13.445l7.704 28.752c1.069 3.992 5.171 6.377 9.186 5.304 4.001-1.072 6.375-5.185 5.303-9.186l-7.704-28.752c-4.865-18.155-23.495-28.92-41.66-24.053l-22.031 5.903-5.407-20.179c-.296-1.105-.797-2.102-1.449-2.962-.23-3.087-.862-6.173-1.9-9.2-5.731-16.705-23.151-26.939-40.521-23.799-3.482.629-6.791 1.729-9.884 3.281-3.414-4.089-7.444-7.591-12.025-10.444-3.514-2.189-8.141-1.115-10.331 2.401-2.189 3.516-1.114 8.142 2.401 10.331 4.135 2.575 7.628 5.898 10.384 9.879 3.141 4.538 9.379 5.725 13.905 2.648 2.459-1.673 5.223-2.795 8.216-3.336 10.142-1.831 20.319 4.146 23.668 13.906 1.878 5.475 1.546 11.477-1.316 16.854-3.53 6.632-9.968 10.553-16.901 11.145-2.958.252-5.634 1.792-7.341 4.224-1.714 2.441-2.253 5.493-1.48 8.373l5.579 20.821c1.126 4.203-1.359 8.596-5.543 9.791-4.35 1.244-8.915-1.737-10.067-6.035l-5.721-21.348c-.812-3.028-2.935-5.459-5.826-6.67-2.876-1.206-6.081-1.017-8.791.518-10.316 5.846-23.315 6.349-34.437.261-2.461-1.346-5.394-1.614-8.046-.731-2.623.873-4.785 2.814-5.931 5.326-3.065 6.723-8.911 11.673-16.037 13.583-13.681 3.665-27.78-4.914-30.552-19.138-2.301-11.806 4.479-23.832 15.972-27.856 4.682-1.64 9.657-1.856 14.389-.624 2.673.698 5.549.245 7.883-1.242 2.354-1.5 3.995-3.938 4.502-6.694 2.454-13.37 12.519-24.282 25.642-27.798 4.001-1.072 6.375-5.185 5.303-9.186-1.071-4.001-5.183-6.372-9.186-5.303-17.077 4.576-30.518 17.947-35.373 34.743-6.062-.764-12.24-.111-18.117 1.947-.866.303-1.715.635-2.547.993l6.941-25.914c.31-1.154.369-2.316.211-3.431.712-1.443 1.333-2.95 1.853-4.516 5.167-15.549-.847-32.219-14.345-40.883 1.074-26.289-16.096-49.851-41.834-56.747-22.462-6.019-46.296 2.498-59.953 20.846-4.693-3.484-10.116-5.905-15.949-7.091-19.61-3.986-39.294 7.273-45.79 26.194-1.481 4.313-2.216 8.736-2.218 13.13-1.173 1.071-2.064 2.478-2.506 4.123l-5.406 20.175-22.03-5.903c-18.116-4.854-36.805 5.936-41.66 24.053l-18.203 67.939c-4.866 18.159 5.892 36.794 24.052 41.66l22.03 5.903c-1.191 4.445-12.528 46.755-14.012 52.291-3.044 11.358 3.72 23.075 15.08 26.12 145.592 38.746 139.57 38.063 144.847 38.063 9.415-.001 18.055-6.293 20.605-15.81 2.761-10.303 29.484-110.039 30.759-114.796 2.774 10.352 51.955 193.9 53.705 200.431 3.033 11.32 14.72 18.132 26.119 15.08l139.331-37.334c11.358-3.043 18.124-14.76 15.081-26.12-.477-1.779-13.56-50.605-14.012-52.291l22.031-5.903c18.117-4.853 28.907-23.542 24.052-41.658zm-57.005-48.841 13.853 51.699-13.91 3.727-13.852-51.698zm-70.712 20.907c4.095-1.171 7.624-3.41 10.368-6.33.406.996-1.144-4.438 23.269 86.575 1.237 4.616-1.498 9.353-6.115 10.591l-4.464 1.196c-4.604 1.236-9.356-1.509-10.591-6.114l-22.898-85.456c3.467.669 7.017.514 10.431-.462zm-95.096-15.03c9.809-2.629 18.108-8.835 23.39-17.342 12.716 5.428 26.66 5.235 38.858.239l4.169 15.557c.776 2.895 2.113 5.607 3.899 7.99-1.239 4.141-1.31 8.555-.159 12.848l22.919 85.536c3.371 12.578 16.353 20.101 28.962 16.721l4.464-1.196c12.622-3.382 20.106-16.337 16.721-28.962l-22.919-85.535c-1.382-5.157-4.385-9.581-8.523-12.712.028-2.054-.221-4.141-.776-6.212l-4.17-15.563c7.481-1.881 14.243-6.186 19.168-12.213l44.215 165.012-151.553 40.609-44.667-166.698c8.147 3.52 17.348 4.24 26.002 1.921zm-82.705 79.143-151.553-40.609 9.913-36.998c.001-.002.001-.005.002-.007s.001-.004.002-.006l31.924-119.144c.001-.005.003-.009.004-.014s.002-.01.004-.014l3.155-11.773c6.452 8.77 16.468 14.881 28.005 16.135-3.451 13.125-3.81 13.635-4.146 16.314-8.846 1.498-16.474 7.992-18.941 17.198l-22.919 85.535c-3.375 12.595 4.126 25.587 16.721 28.962l4.464 1.196c12.624 3.382 25.579-4.095 28.962-16.722 1.072-4.001-1.303-8.113-5.304-9.186-3.997-1.07-8.113 1.302-9.186 5.304-1.237 4.616-5.974 7.352-10.59 6.114l-4.465-1.196c-4.615-1.236-7.352-5.973-6.114-10.591l22.919-85.535c.945-3.526 3.962-5.963 7.392-6.353.05.087.1.174.151.261 3.118 5.298 8.034 9.039 13.861 10.554-.137 1.122.651-2.212-14.082 52.886-1.072 4.001 1.302 8.114 5.303 9.186.65.174 1.303.257 1.946.257 3.311 0 6.342-2.21 7.24-5.561l13.847-51.676c.561-2.096.831-4.227.813-6.348 6.165-2.736 11.099-8.121 12.961-15.071l4.047-15.104c11.492 6.748 25.602 9.454 39.537 6.707 9.595 10.75 24.9 14.644 38.509 9.66-6.871 25.646-39.331 146.788-44.382 165.639zm-147.088-115.229-13.909-3.727 13.853-51.698 13.909 3.727zm49.15-125.234c4.059-11.822 16.361-18.858 28.613-16.365 4.904.997 9.335 3.375 12.816 6.876 2.221 2.234 5.287 3.292 8.403 2.901 3.09-.386 5.77-2.142 7.351-4.817 9.429-15.943 28.526-23.727 46.44-18.925 19.662 5.268 32.517 23.77 30.567 43.995-.397 4.125 1.707 8.016 5.36 9.912 0 0 .001 0 .002.001 8.917 4.624 13.079 14.929 9.897 24.504-5.086 15.309-25.817 18.969-35.65 5.61-2.445-3.321-6.589-4.802-10.558-3.775-12.278 3.179-25.613.519-35.802-7.401-2.661-2.067-6.156-2.661-9.349-1.588-3.197 1.074-5.627 3.661-6.501 6.92l-5.85 21.832c-1.126 4.203-5.478 6.764-9.695 5.709-4.379-1.096-6.857-5.95-5.702-10.261l5.169-19.293c.833-3.108.116-6.45-1.917-8.94-2-2.45-5.117-3.873-8.4-3.675-9.311.57-18.785-4.135-23.637-13.25-3.287-6.174-3.859-13.266-1.557-19.97zm-78.278 145.819c-10.15-2.72-16.166-13.136-13.445-23.289l18.205-67.94c2.713-10.128 13.163-16.16 23.289-13.446l22.03 5.903-3.215 11.999-19.516-5.229c-4.896-1.31-9.948 1.603-11.261 6.5l-16.861 62.919c-1.311 4.897 1.607 9.947 6.501 11.257l19.518 5.23-3.215 12zm170.179 117.175c-.903 3.37-4.378 5.375-7.748 4.474l-139.332-37.334c-3.376-.905-5.378-4.37-4.474-7.748l2.155-8.042 151.553 40.608zm260.522 52.774-139.332 37.334c-3.364.903-6.845-1.103-7.748-4.473l-2.154-8.042 151.554-40.609 2.154 8.041c.903 3.371-1.104 6.847-4.474 7.749z"/><path d="m204.528 179.288-4.464-1.196c-12.597-3.373-25.587 4.126-28.962 16.721l-22.919 85.535c-3.375 12.595 4.126 25.587 16.721 28.961l4.464 1.196c12.623 3.383 25.579-4.096 28.962-16.721l22.919-85.535c3.376-12.594-4.125-25.586-16.721-28.961zm2.233 25.08-22.919 85.536c-1.234 4.606-5.987 7.348-10.591 6.114l-4.464-1.196c-4.615-1.236-7.352-5.973-6.114-10.591l22.919-85.535c1.234-4.605 5.987-7.348 10.591-6.114l4.463 1.196c4.606 1.233 7.349 5.984 6.115 10.59z"/><path d="m313.678 379.42c3.381 12.625 16.337 20.104 28.962 16.721l4.464-1.196c12.622-3.382 20.106-16.338 16.721-28.962l-22.919-85.535c-3.38-12.622-16.333-20.104-28.962-16.721l-4.464 1.196c-12.622 3.382-20.106 16.337-16.721 28.962zm-2.315-100.008 4.464-1.196c4.612-1.236 9.353 1.495 10.591 6.114l22.919 85.536c1.237 4.616-1.498 9.354-6.115 10.59l-4.464 1.196c-4.612 1.239-9.354-1.498-10.591-6.114l-22.919-85.536c-1.237-4.616 1.497-9.352 6.115-10.59z"/><path d="m286.076 95.483c2.08 3.605 6.675 4.808 10.245 2.745l16.503-9.528c3.587-2.071 4.816-6.658 2.745-10.245-2.07-3.587-6.659-4.816-10.245-2.745l-16.503 9.528c-3.586 2.071-4.816 6.658-2.745 10.245z"/><path d="m289.167 113.096c-1.072 4.001 1.302 8.113 5.303 9.186l18.407 4.932c4.008 1.071 8.115-1.306 9.186-5.304 1.072-4.001-1.302-8.113-5.303-9.186l-18.407-4.932c-4.001-1.069-8.115 1.303-9.186 5.304z"/><path d="m272.368 84c4.019 1.077 8.119-1.321 9.186-5.304l4.932-18.407c1.072-4.001-1.302-8.113-5.303-9.186-4.003-1.073-8.114 1.303-9.186 5.304l-4.932 18.407c-1.072 4.002 1.302 8.114 5.303 9.186z"/></svg>