<svg height="180" viewBox="0 0 155 180" width="155" xmlns="http://www.w3.org/2000/svg"><g fill="none"><path d="m93.7241354 60.8022594c-6.1944942 0-11.8656048-2.2489735-16.2609681-5.9757747-5.0192866 3.7534593-11.2335038 5.9757747-17.9634078 5.9757747-6.7303851 0-12.9446023-2.2223154-17.9634078-5.9757747-4.3958444 3.7268012-10.066474 5.9757747-16.2614492 5.9757747-.9380495 0-1.8626296-.0557396-2.7737403-.156071v43.3538116h-4.0263972c-10.20357349 0-18.474765-8.3342887-18.474765-18.6146181v-50.5737922h.01298838c.2780475-13.821978 11.47739662-24.94276429 25.26191412-24.94276429 3.6261627 0 7.0709692.77502339 10.1881799 2.16075949 5.5104396-7.30819458 14.2246791-12.0295849 24.0366771-12.0295849s18.5262375 4.72139032 24.0366771 12.0295849c3.1176917-1.3852514 6.5620172-2.16075949 10.1881799-2.16075949 13.9591385 0 25.2753835 11.40190799 25.2753835 25.46671699v24.9238613z" fill="#fff"/><path d="m94.5956782 9.58599191c-3.644661 0-7.1065571.75237349-10.2401532 2.09630059-4.022762-5.14999638-9.7460111-8.97393451-16.355525-10.6822925v57.0078075c3.7515156-.9700915 7.2196973-2.6163787 10.2517574-4.8053153 4.4177855 3.6156248 10.1178264 5.7975078 16.3439208 5.7975078l25.4043218-.5266614v-24.1803426c0-13.6452333-11.373973-24.70700409-25.4043218-24.70700409z" fill="#e9edf5"/><path d="m130.344421 153h-40.344421v-94h40.344421c13.595049 0 24.655579 11.2989335 24.655579 25.1870153v43.6254877c0 13.888082-11.061002 25.187497-24.655579 25.187497zm-24.789446-15.890254h24.789446c5.01813 0 9.100604-4.170469 9.100604-9.297243v-43.6254877c0-5.1262922-4.082474-9.2967615-9.100604-9.2967615h-24.789446z" fill="#fdba12"/><path d="m106.030383 180h-78.0612448c-7.1628113 0-12.9691382-5.80129-12.9691382-12.957888v-121.042112h104v121.042112c0 7.156598-5.806805 12.957888-12.969617 12.957888z" fill="#ffd400"/><path d="m68 46v134h38.894596c7.23807 0 13.105404-5.80129 13.105404-12.957888v-121.042112z" fill="#fdba12"/><path d="m47 164c-6.0748144 0-11-4.953978-11-11.065392v-81.8692164c0-6.1109273 4.9247024-11.0653916 11-11.0653916 6.0748144 0 11 4.9539782 11 11.0653916v81.8692164c-.0004832 6.110928-4.9251856 11.065392-11 11.065392z" fill="#fdba12"/><path d="m87 164c-6.0748144 0-11-4.953978-11-11.065392v-81.8692164c0-6.1109273 4.9247024-11.0653916 11-11.0653916 6.0748144 0 11 4.9539782 11 11.0653916v81.8692164c-.0004832 6.110928-4.9251856 11.065392-11 11.065392z" fill="#ffa300"/></g></svg>